<svg xmlns="http://www.w3.org/2000/svg" viewBox="0 0 24 24" width="24" height="24"><path fill="currentColor" d="M6.92 6.2c-1.57 0-3.01 1.26-4.12 3.28C1.52 11.8.75 14.55.75 16.42c0 1.95.8 3.18 2.28 3.18 1.42 0 2.63-1.1 3.97-3.48.97-1.73 1.88-3.87 2.55-5.34l.78-1.73c.88-1.93 1.9-3.62 3.15-4.72a5.3 5.3 0 0 1 3.61-1.43c2.05 0 3.8 1.03 4.89 2.83.96 1.58 1.47 3.62 1.47 5.84 0 3.67-1.82 6.03-4.71 6.03-1.67 0-2.95-.82-3.88-2.1.56-.83 1.02-1.73 1.4-2.53.58 1.1 1.38 1.78 2.45 1.78 1.25 0 2.05-1.33 2.05-3.44 0-1.65-.36-3.26-1.05-4.48-.67-1.18-1.6-1.86-2.65-1.86-1.32 0-2.44 1.03-3.53 2.97l-1.1 1.97-.86 1.55c-1.27 2.29-2.18 3.6-3.31 4.6a5.09 5.09 0 0 1-3.38 1.34C1.72 19.6 0 17.66 0 14.7c0-2.28.88-5.28 2.36-7.78C3.85 4.53 5.48 3.4 7.28 3.4c1.7 0 3.05.88 4.05 2.38-.6.8-1.12 1.7-1.55 2.58-.57-1.18-1.4-2.16-2.86-2.16Z"/></svg>
