<svg xmlns="http://www.w3.org/2000/svg" viewBox="0 0 24 24" width="24" height="24"><path fill="currentColor" d="M22.28 9.37a6.19 6.19 0 0 0-.53-5.09 6.25 6.25 0 0 0-6.74-2.98A6.19 6.19 0 0 0 10.36 0a6.25 6.25 0 0 0-5.96 4.36 6.19 6.19 0 0 0-4.14 3.01 6.25 6.25 0 0 0 .77 7.33 6.19 6.19 0 0 0 .53 5.09 6.25 6.25 0 0 0 6.74 2.98A6.19 6.19 0 0 0 13.64 24a6.25 6.25 0 0 0 5.96-4.36 6.19 6.19 0 0 0 4.14-3.01 6.25 6.25 0 0 0-.77-7.33l-.69.07ZM13.64 22.55a4.68 4.68 0 0 1-3.01-1.09l.15-.09 5.01-2.89a.81.81 0 0 0 .41-.71v-7.06l2.12 1.22a.07.07 0 0 1 .04.06v5.84a4.71 4.71 0 0 1-4.72 4.72ZM3.6 18.41a4.68 4.68 0 0 1-.56-3.16l.15.09 5.01 2.89a.81.81 0 0 0 .81 0l6.12-3.53v2.45a.07.07 0 0 1-.03.06l-5.06 2.92A4.71 4.71 0 0 1 3.6 18.41ZM2.34 7.89A4.68 4.68 0 0 1 4.79 5.83v5.95a.81.81 0 0 0 .41.71l6.12 3.53-2.12 1.22a.07.07 0 0 1-.07 0L4.07 14.32a4.71 4.71 0 0 1-1.73-6.43Zm17.08 3.98-6.12-3.53 2.12-1.22a.07.07 0 0 1 .07 0l5.06 2.92a4.71 4.71 0 0 1-.73 8.5v-5.96a.81.81 0 0 0-.4-.71Zm2.11-3.19-.15-.09-5.01-2.89a.81.81 0 0 0-.81 0L9.44 9.23V6.78a.07.07 0 0 1 .03-.06l5.06-2.92a4.71 4.71 0 0 1 7 4.88ZM8.33 12.74l-2.12-1.22a.07.07 0 0 1-.04-.06V5.62a4.71 4.71 0 0 1 7.73-3.62l-.15.09-5.01 2.89a.81.81 0 0 0-.41.71v7.05Zm1.15-2.48L12 8.67l2.52 1.46v2.91L12 14.5l-2.52-1.46v-2.68Z"/></svg>
